{
	"asset":{
		"generator":"Khronos glTF Blender I/O v4.3.47",
		"version":"2.0"
	},
	"scene":0,
	"scenes":[
		{
			"name":"Scene",
			"nodes":[
				3
			]
		}
	],
	"nodes":[
		{
			"mesh":0,
			"name":"Object_2"
		},
		{
			"mesh":1,
			"name":"Object_3"
		},
		{
			"children":[
				0,
				1
			],
			"name":"alliance_statue.obj.cleaner"
		},
		{
			"children":[
				2
			],
			"name":"Sketchfab_model",
			"rotation":[
				-0.70710688829422,
				0,
				0,
				0.7071066498756409
			]
		}
	],
	"materials":[
		{
			"doubleSided":true,
			"emissiveTexture":{
				"index":0
			},
			"name":"default",
			"normalTexture":{
				"index":1
			},
			"pbrMetallicRoughness":{
				"baseColorTexture":{
					"index":2
				},
				"metallicFactor":0,
				"roughnessFactor":0.6000000238418579
			}
		}
	],
	"meshes":[
		{
			"name":"Object_0",
			"primitives":[
				{
					"attributes":{
						"POSITION":0,
						"NORMAL":1,
						"TEXCOORD_0":2
					},
					"indices":3,
					"material":0
				}
			]
		},
		{
			"name":"Object_1",
			"primitives":[
				{
					"attributes":{
						"POSITION":4,
						"NORMAL":5,
						"TEXCOORD_0":6
					},
					"indices":7,
					"material":0
				}
			]
		}
	],
	"textures":[
		{
			"sampler":0,
			"source":0
		},
		{
			"sampler":0,
			"source":1
		},
		{
			"sampler":0,
			"source":2
		}
	],
	"images":[
		{
			"mimeType":"image/png",
			"name":"default_emissive.png",
			"uri":"textures/default_emissive.png"
		},
		{
			"mimeType":"image/png",
			"name":"default_normal.png",
			"uri":"textures/default_normal.png"
		},
		{
			"mimeType":"image/png",
			"name":"default_baseColor.png",
			"uri":"textures/default_baseColor.png"
		}
	],
	"accessors":[
		{
			"bufferView":0,
			"componentType":5126,
			"count":926,
			"max":[
				161.26390075683594,
				184.62060546875,
				782.236572265625
			],
			"min":[
				-161.3343048095703,
				-185.74130249023438,
				-2.985100030899048
			],
			"type":"VEC3"
		},
		{
			"bufferView":1,
			"componentType":5126,
			"count":926,
			"type":"VEC3"
		},
		{
			"bufferView":2,
			"componentType":5126,
			"count":926,
			"type":"VEC2"
		},
		{
			"bufferView":3,
			"componentType":5123,
			"count":1872,
			"type":"SCALAR"
		},
		{
			"bufferView":4,
			"componentType":5126,
			"count":2673,
			"max":[
				161.26390075683594,
				184.62060546875,
				779.1832885742188
			],
			"min":[
				-161.3343048095703,
				-185.74130249023438,
				-2.985100030899048
			],
			"type":"VEC3"
		},
		{
			"bufferView":5,
			"componentType":5126,
			"count":2673,
			"type":"VEC3"
		},
		{
			"bufferView":6,
			"componentType":5126,
			"count":2673,
			"type":"VEC2"
		},
		{
			"bufferView":7,
			"componentType":5123,
			"count":8886,
			"type":"SCALAR"
		}
	],
	"bufferViews":[
		{
			"buffer":0,
			"byteLength":11112,
			"byteOffset":0,
			"target":34962
		},
		{
			"buffer":0,
			"byteLength":11112,
			"byteOffset":11112,
			"target":34962
		},
		{
			"buffer":0,
			"byteLength":7408,
			"byteOffset":22224,
			"target":34962
		},
		{
			"buffer":0,
			"byteLength":3744,
			"byteOffset":29632,
			"target":34963
		},
		{
			"buffer":0,
			"byteLength":32076,
			"byteOffset":33376,
			"target":34962
		},
		{
			"buffer":0,
			"byteLength":32076,
			"byteOffset":65452,
			"target":34962
		},
		{
			"buffer":0,
			"byteLength":21384,
			"byteOffset":97528,
			"target":34962
		},
		{
			"buffer":0,
			"byteLength":17772,
			"byteOffset":118912,
			"target":34963
		}
	],
	"samplers":[
		{
			"magFilter":9729,
			"minFilter":9987
		}
	],
	"buffers":[
		{
			"byteLength":136684,
			"uri":"untitled.bin"
		}
	]
}
